<mxfile host="app.diagrams.net" agent="Mozilla/5.0 (X11; Linux x86_64) AppleWebKit/537.36 (KHTML, like Gecko) Chrome/127.0.0.0 Safari/537.36" version="24.7.16">
  <diagram name="Seite-1" id="ItwYJ3FMCfahvQic_7Ho">
    <mxGraphModel dx="1762" dy="708" grid="1" gridSize="10" guides="1" tooltips="1" connect="1" arrows="1" fold="1" page="1" pageScale="1" pageWidth="3300" pageHeight="4681" math="0" shadow="0">
      <root>
        <mxCell id="0" />
        <mxCell id="1" parent="0" />
        <mxCell id="aHd_dyo4wA7D-tjq-ApZ-3" value="" style="edgeStyle=orthogonalEdgeStyle;rounded=0;orthogonalLoop=1;jettySize=auto;html=1;" edge="1" parent="1" source="aHd_dyo4wA7D-tjq-ApZ-1" target="aHd_dyo4wA7D-tjq-ApZ-2">
          <mxGeometry relative="1" as="geometry" />
        </mxCell>
        <mxCell id="aHd_dyo4wA7D-tjq-ApZ-1" value="./philo" style="rounded=0;whiteSpace=wrap;html=1;" vertex="1" parent="1">
          <mxGeometry x="160" y="140" width="120" height="60" as="geometry" />
        </mxCell>
        <mxCell id="aHd_dyo4wA7D-tjq-ApZ-5" value="" style="edgeStyle=orthogonalEdgeStyle;rounded=0;orthogonalLoop=1;jettySize=auto;html=1;" edge="1" parent="1" source="aHd_dyo4wA7D-tjq-ApZ-2" target="aHd_dyo4wA7D-tjq-ApZ-4">
          <mxGeometry relative="1" as="geometry" />
        </mxCell>
        <mxCell id="aHd_dyo4wA7D-tjq-ApZ-2" value="validate input" style="whiteSpace=wrap;html=1;rounded=0;" vertex="1" parent="1">
          <mxGeometry x="360" y="140" width="120" height="60" as="geometry" />
        </mxCell>
        <mxCell id="aHd_dyo4wA7D-tjq-ApZ-4" value="ft_init_philo" style="shape=process;whiteSpace=wrap;html=1;backgroundOutline=1;" vertex="1" parent="1">
          <mxGeometry x="560" y="140" width="120" height="60" as="geometry" />
        </mxCell>
        <mxCell id="aHd_dyo4wA7D-tjq-ApZ-9" value="" style="edgeStyle=orthogonalEdgeStyle;rounded=0;orthogonalLoop=1;jettySize=auto;html=1;" edge="1" parent="1" source="aHd_dyo4wA7D-tjq-ApZ-7" target="aHd_dyo4wA7D-tjq-ApZ-8">
          <mxGeometry relative="1" as="geometry" />
        </mxCell>
        <mxCell id="aHd_dyo4wA7D-tjq-ApZ-7" value="ft_init_philo" style="shape=process;whiteSpace=wrap;html=1;backgroundOutline=1;" vertex="1" parent="1">
          <mxGeometry x="160" y="560" width="120" height="60" as="geometry" />
        </mxCell>
        <mxCell id="aHd_dyo4wA7D-tjq-ApZ-8" value="init ft_eat(time_to_eat)&lt;div&gt;init ft_sleep&lt;/div&gt;&lt;div&gt;init ft_think&lt;/div&gt;" style="whiteSpace=wrap;html=1;align=left;" vertex="1" parent="1">
          <mxGeometry x="360" y="560" width="190" height="60" as="geometry" />
        </mxCell>
        <mxCell id="aHd_dyo4wA7D-tjq-ApZ-10" value="&lt;font style=&quot;font-size: 24px;&quot;&gt;Spaghetti table&lt;/font&gt;" style="ellipse;whiteSpace=wrap;html=1;" vertex="1" parent="1">
          <mxGeometry x="940" y="1140" width="370" height="370" as="geometry" />
        </mxCell>
        <mxCell id="aHd_dyo4wA7D-tjq-ApZ-12" value="" style="ellipse;whiteSpace=wrap;html=1;aspect=fixed;" vertex="1" parent="1">
          <mxGeometry x="910" y="1490" width="80" height="80" as="geometry" />
        </mxCell>
        <mxCell id="aHd_dyo4wA7D-tjq-ApZ-13" value="" style="ellipse;whiteSpace=wrap;html=1;aspect=fixed;" vertex="1" parent="1">
          <mxGeometry x="1260" y="1500" width="80" height="80" as="geometry" />
        </mxCell>
        <mxCell id="aHd_dyo4wA7D-tjq-ApZ-14" value="" style="ellipse;whiteSpace=wrap;html=1;aspect=fixed;" vertex="1" parent="1">
          <mxGeometry x="1270" y="1080" width="80" height="80" as="geometry" />
        </mxCell>
        <mxCell id="aHd_dyo4wA7D-tjq-ApZ-15" value="" style="ellipse;whiteSpace=wrap;html=1;aspect=fixed;" vertex="1" parent="1">
          <mxGeometry x="920" y="1070" width="80" height="80" as="geometry" />
        </mxCell>
        <mxCell id="aHd_dyo4wA7D-tjq-ApZ-16" value="&lt;font style=&quot;font-size: 24px;&quot;&gt;Spaghetti table&lt;/font&gt;" style="ellipse;whiteSpace=wrap;html=1;" vertex="1" parent="1">
          <mxGeometry x="1520" y="1150" width="370" height="370" as="geometry" />
        </mxCell>
        <mxCell id="aHd_dyo4wA7D-tjq-ApZ-18" value="" style="ellipse;whiteSpace=wrap;html=1;aspect=fixed;" vertex="1" parent="1">
          <mxGeometry x="1665" y="1560" width="80" height="80" as="geometry" />
        </mxCell>
        <mxCell id="aHd_dyo4wA7D-tjq-ApZ-19" value="" style="ellipse;whiteSpace=wrap;html=1;aspect=fixed;" vertex="1" parent="1">
          <mxGeometry x="1850" y="1090" width="80" height="80" as="geometry" />
        </mxCell>
        <mxCell id="aHd_dyo4wA7D-tjq-ApZ-20" value="" style="ellipse;whiteSpace=wrap;html=1;aspect=fixed;" vertex="1" parent="1">
          <mxGeometry x="1500" y="1080" width="80" height="80" as="geometry" />
        </mxCell>
        <mxCell id="aHd_dyo4wA7D-tjq-ApZ-23" value="" style="ellipse;whiteSpace=wrap;html=1;align=center;aspect=fixed;fillColor=none;strokeColor=none;resizable=0;perimeter=centerPerimeter;rotatable=0;allowArrows=0;points=[];outlineConnect=1;" vertex="1" parent="1">
          <mxGeometry x="660" y="1640" width="10" height="10" as="geometry" />
        </mxCell>
        <mxCell id="aHd_dyo4wA7D-tjq-ApZ-28" value="" style="shape=mxgraph.arrows2.wedgeArrow;html=1;bendable=0;startWidth=19.574468085106382;fillColor=strokeColor;defaultFillColor=invert;defaultGradientColor=invert;rounded=0;" edge="1" parent="1">
          <mxGeometry width="100" height="100" relative="1" as="geometry">
            <mxPoint x="1020" y="1380" as="sourcePoint" />
            <mxPoint x="1020" y="1470" as="targetPoint" />
          </mxGeometry>
        </mxCell>
        <mxCell id="aHd_dyo4wA7D-tjq-ApZ-29" value="" style="shape=mxgraph.arrows2.wedgeArrow;html=1;bendable=0;startWidth=19.574468085106382;fillColor=strokeColor;defaultFillColor=invert;defaultGradientColor=invert;rounded=0;" edge="1" parent="1">
          <mxGeometry width="100" height="100" relative="1" as="geometry">
            <mxPoint x="1220" y="1380" as="sourcePoint" />
            <mxPoint x="1220" y="1470" as="targetPoint" />
          </mxGeometry>
        </mxCell>
        <mxCell id="aHd_dyo4wA7D-tjq-ApZ-30" value="" style="shape=mxgraph.arrows2.wedgeArrow;html=1;bendable=0;startWidth=19.574468085106382;fillColor=strokeColor;defaultFillColor=invert;defaultGradientColor=invert;rounded=0;" edge="1" parent="1">
          <mxGeometry width="100" height="100" relative="1" as="geometry">
            <mxPoint x="1220" y="1190" as="sourcePoint" />
            <mxPoint x="1220" y="1280" as="targetPoint" />
          </mxGeometry>
        </mxCell>
        <mxCell id="aHd_dyo4wA7D-tjq-ApZ-31" value="" style="shape=mxgraph.arrows2.wedgeArrow;html=1;bendable=0;startWidth=19.574468085106382;fillColor=strokeColor;defaultFillColor=invert;defaultGradientColor=invert;rounded=0;" edge="1" parent="1">
          <mxGeometry width="100" height="100" relative="1" as="geometry">
            <mxPoint x="1030" y="1190" as="sourcePoint" />
            <mxPoint x="1030" y="1280" as="targetPoint" />
          </mxGeometry>
        </mxCell>
        <mxCell id="aHd_dyo4wA7D-tjq-ApZ-33" value="" style="shape=mxgraph.arrows2.wedgeArrow;html=1;bendable=0;startWidth=19.574468085106382;fillColor=strokeColor;defaultFillColor=invert;defaultGradientColor=invert;rounded=0;" edge="1" parent="1">
          <mxGeometry width="100" height="100" relative="1" as="geometry">
            <mxPoint x="1610" y="1210" as="sourcePoint" />
            <mxPoint x="1610" y="1300" as="targetPoint" />
          </mxGeometry>
        </mxCell>
        <mxCell id="aHd_dyo4wA7D-tjq-ApZ-34" value="" style="shape=mxgraph.arrows2.wedgeArrow;html=1;bendable=0;startWidth=19.574468085106382;fillColor=strokeColor;defaultFillColor=invert;defaultGradientColor=invert;rounded=0;" edge="1" parent="1">
          <mxGeometry width="100" height="100" relative="1" as="geometry">
            <mxPoint x="1800" y="1220" as="sourcePoint" />
            <mxPoint x="1800" y="1310" as="targetPoint" />
          </mxGeometry>
        </mxCell>
        <mxCell id="aHd_dyo4wA7D-tjq-ApZ-35" value="" style="shape=mxgraph.arrows2.wedgeArrow;html=1;bendable=0;startWidth=19.574468085106382;fillColor=strokeColor;defaultFillColor=invert;defaultGradientColor=invert;rounded=0;" edge="1" parent="1">
          <mxGeometry width="100" height="100" relative="1" as="geometry">
            <mxPoint x="1710" y="1400" as="sourcePoint" />
            <mxPoint x="1710" y="1490" as="targetPoint" />
          </mxGeometry>
        </mxCell>
        <mxCell id="aHd_dyo4wA7D-tjq-ApZ-36" value="args" style="swimlane;fontStyle=0;childLayout=stackLayout;horizontal=1;startSize=26;fillColor=none;horizontalStack=0;resizeParent=1;resizeParentMax=0;resizeLast=0;collapsible=1;marginBottom=0;whiteSpace=wrap;html=1;" vertex="1" parent="1">
          <mxGeometry x="360" y="210" width="360" height="158" as="geometry" />
        </mxCell>
        <mxCell id="aHd_dyo4wA7D-tjq-ApZ-37" value="number_of_philosophers" style="text;strokeColor=none;fillColor=none;align=left;verticalAlign=top;spacingLeft=4;spacingRight=4;overflow=hidden;rotatable=0;points=[[0,0.5],[1,0.5]];portConstraint=eastwest;whiteSpace=wrap;html=1;" vertex="1" parent="aHd_dyo4wA7D-tjq-ApZ-36">
          <mxGeometry y="26" width="360" height="26" as="geometry" />
        </mxCell>
        <mxCell id="aHd_dyo4wA7D-tjq-ApZ-38" value="time_to_die" style="text;strokeColor=none;fillColor=none;align=left;verticalAlign=top;spacingLeft=4;spacingRight=4;overflow=hidden;rotatable=0;points=[[0,0.5],[1,0.5]];portConstraint=eastwest;whiteSpace=wrap;html=1;" vertex="1" parent="aHd_dyo4wA7D-tjq-ApZ-36">
          <mxGeometry y="52" width="360" height="28" as="geometry" />
        </mxCell>
        <mxCell id="aHd_dyo4wA7D-tjq-ApZ-39" value="time_to_eat" style="text;strokeColor=none;fillColor=none;align=left;verticalAlign=top;spacingLeft=4;spacingRight=4;overflow=hidden;rotatable=0;points=[[0,0.5],[1,0.5]];portConstraint=eastwest;whiteSpace=wrap;html=1;" vertex="1" parent="aHd_dyo4wA7D-tjq-ApZ-36">
          <mxGeometry y="80" width="360" height="26" as="geometry" />
        </mxCell>
        <mxCell id="aHd_dyo4wA7D-tjq-ApZ-40" value="time_to_sleep" style="text;strokeColor=none;fillColor=none;align=left;verticalAlign=top;spacingLeft=4;spacingRight=4;overflow=hidden;rotatable=0;points=[[0,0.5],[1,0.5]];portConstraint=eastwest;whiteSpace=wrap;html=1;" vertex="1" parent="aHd_dyo4wA7D-tjq-ApZ-36">
          <mxGeometry y="106" width="360" height="26" as="geometry" />
        </mxCell>
        <mxCell id="aHd_dyo4wA7D-tjq-ApZ-46" value="number_of_times_each_philosopher_must_eat" style="text;strokeColor=none;fillColor=none;align=left;verticalAlign=top;spacingLeft=4;spacingRight=4;overflow=hidden;rotatable=0;points=[[0,0.5],[1,0.5]];portConstraint=eastwest;whiteSpace=wrap;html=1;" vertex="1" parent="aHd_dyo4wA7D-tjq-ApZ-36">
          <mxGeometry y="132" width="360" height="26" as="geometry" />
        </mxCell>
      </root>
    </mxGraphModel>
  </diagram>
</mxfile>
